<?xml version="1.0" standalone="no"?>
<!DOCTYPE svg PUBLIC "-//W3C//DTD SVG 20010904//EN"
 "http://www.w3.org/TR/2001/REC-SVG-20010904/DTD/svg10.dtd">
<svg version="1.0" xmlns="http://www.w3.org/2000/svg"
 width="700.000000pt" height="700.000000pt" viewBox="0 0 700.000000 700.000000"
 preserveAspectRatio="xMidYMid meet">
<metadata>
Created by potrace 1.14, written by Peter Selinger 2001-2017
</metadata>
<g transform="translate(0.000000,700.000000) scale(0.100000,-0.100000)"
fill="#000000" stroke="none">
<path d="M673 5329 c-142 -27 -263 -142 -303 -289 -9 -34 -12 -353 -12 -1336
-1 -1424 -4 -1352 62 -1442 156 -216 475 -166 565 89 14 38 16 112 15 534 -1
804 -8 1188 -25 1355 -4 30 -4 52 -2 50 4 -5 187 -261 574 -806 122 -171 236
-323 255 -339 76 -64 166 -81 245 -46 57 27 97 64 159 151 30 41 89 123 131
182 43 59 85 117 93 129 8 11 29 40 46 63 33 44 249 343 274 379 26 38 202
282 207 287 3 3 2 -11 0 -30 -19 -119 -25 -389 -27 -1196 -2 -701 -1 -708 46
-784 139 -226 469 -197 571 50 l23 55 -3 1330 -2 1330 -26 56 c-85 181 -281
275 -464 222 -87 -25 -182 -102 -251 -203 -28 -42 -554 -776 -634 -885 -44
-61 -82 -114 -164 -227 l-63 -88 -36 53 c-19 28 -133 187 -251 352 -396 548
-561 778 -589 819 -57 82 -123 137 -204 169 -50 20 -151 27 -210 16z"/>
<path d="M4079 2149 c-117 -21 -200 -117 -204 -236 -4 -105 73 -208 177 -237
45 -12 223 -14 1228 -13 l1175 2 53 29 c146 81 177 252 67 374 -83 93 27 85
-1296 86 -641 1 -1181 -2 -1200 -5z"/>
</g>
</svg>
