<svg width="208" height="55" viewBox="0 0 208 55" fill="none" xmlns="http://www.w3.org/2000/svg">
<path d="M25.2798 54.616H14.9118C13.8878 54.616 13.1411 54.3813 12.6718 53.912C12.2025 53.4427 11.9678 52.696 11.9678 51.672V20.888H3.19986C2.17586 20.888 1.4292 20.6533 0.959859 20.184C0.490526 19.7147 0.255859 18.968 0.255859 17.944V10.2C0.255859 9.64533 0.319859 9.176 0.447859 8.792C0.618526 8.408 0.853192 8.088 1.15186 7.832L9.40786 0.855999C9.6212 0.685332 9.89853 0.557331 10.2398 0.471996C10.6238 0.343998 11.0291 0.279999 11.4558 0.279999H45.2478C46.2718 0.279999 47.0185 0.514665 47.4878 0.983997C47.9571 1.45333 48.1918 2.2 48.1918 3.224V10.968C48.1918 11.5227 48.1065 11.992 47.9358 12.376C47.8078 12.76 47.5945 13.08 47.2958 13.336L38.9758 20.248C38.8051 20.4187 38.5278 20.568 38.1438 20.696C37.8025 20.824 37.4185 20.888 36.9918 20.888H36.4798V44.696C36.4798 45.2507 36.3945 45.72 36.2238 46.104C36.0958 46.488 35.8825 46.808 35.5838 47.064L27.2638 53.976C27.0931 54.1467 26.8158 54.296 26.4318 54.424C26.0905 54.552 25.7065 54.616 25.2798 54.616ZM33.5358 47C34.3465 47 34.9225 46.8293 35.2638 46.488C35.6478 46.104 35.8398 45.5067 35.8398 44.696V13.272H45.2478C46.0585 13.272 46.6345 13.1013 46.9758 12.76C47.3598 12.376 47.5518 11.7787 47.5518 10.968V3.224C47.5518 2.41333 47.3598 1.83733 46.9758 1.496C46.6345 1.112 46.0585 0.919998 45.2478 0.919998H11.4558C10.6451 0.919998 10.0478 1.112 9.66386 1.496C9.32253 1.83733 9.15186 2.41333 9.15186 3.224V10.968C9.15186 11.7787 9.32253 12.376 9.66386 12.76C10.0478 13.1013 10.6451 13.272 11.4558 13.272H20.8638V44.696C20.8638 45.5067 21.0345 46.104 21.3758 46.488C21.7598 46.8293 22.3571 47 23.1678 47H33.5358Z" fill="#222222"/>
<path d="M80.439 54.616H53.175C52.151 54.616 51.4043 54.3813 50.935 53.912C50.4657 53.4427 50.231 52.696 50.231 51.672V44.056C50.231 43.5013 50.295 43.032 50.423 42.648C50.5937 42.264 50.8283 41.944 51.127 41.688L58.871 35.16V20.888H53.175C52.151 20.888 51.4043 20.6533 50.935 20.184C50.4657 19.7147 50.231 18.968 50.231 17.944V10.2C50.231 9.64533 50.295 9.176 50.423 8.792C50.5937 8.408 50.8283 8.088 51.127 7.832L59.383 0.855999C59.5963 0.685332 59.8737 0.557331 60.215 0.471996C60.599 0.343998 61.0043 0.279999 61.431 0.279999H88.695C89.719 0.279999 90.4657 0.514665 90.935 0.983997C91.4043 1.45333 91.639 2.2 91.639 3.224V10.968C91.639 11.5227 91.5537 11.992 91.383 12.376C91.255 12.76 91.0417 13.08 90.743 13.336L83.127 19.736V34.136H88.695C89.719 34.136 90.4657 34.3707 90.935 34.84C91.4043 35.3093 91.639 36.056 91.639 37.08V44.696C91.639 45.2507 91.5537 45.72 91.383 46.104C91.255 46.488 91.0417 46.808 90.743 47.064L82.423 53.976C82.2523 54.1467 81.975 54.296 81.591 54.424C81.2497 54.552 80.8657 54.616 80.439 54.616ZM61.431 47H88.695C89.5057 47 90.0817 46.8293 90.423 46.488C90.807 46.104 90.999 45.5067 90.999 44.696V37.08C90.999 36.2693 90.807 35.6933 90.423 35.352C90.0817 34.968 89.5057 34.776 88.695 34.776H82.487V13.272H88.695C89.5057 13.272 90.0817 13.1013 90.423 12.76C90.807 12.376 90.999 11.7787 90.999 10.968V3.224C90.999 2.41333 90.807 1.83733 90.423 1.496C90.0817 1.112 89.5057 0.919998 88.695 0.919998H61.431C60.6203 0.919998 60.023 1.112 59.639 1.496C59.2977 1.83733 59.127 2.41333 59.127 3.224V10.968C59.127 11.7787 59.2977 12.376 59.639 12.76C60.023 13.1013 60.6203 13.272 61.431 13.272H67.767V34.776H61.431C60.6203 34.776 60.023 34.968 59.639 35.352C59.2977 35.6933 59.127 36.2693 59.127 37.08V44.696C59.127 45.5067 59.2977 46.104 59.639 46.488C60.023 46.8293 60.6203 47 61.431 47Z" fill="#222222"/>
<path d="M117.116 47C117.927 47 118.503 46.8293 118.844 46.488C119.228 46.104 119.42 45.5067 119.42 44.696V22.168L123.196 29.144C123.58 29.8693 124.028 30.4027 124.54 30.744C125.095 31.0427 125.777 31.192 126.588 31.192H129.148C129.959 31.192 130.62 31.0427 131.132 30.744C131.687 30.4027 132.156 29.8693 132.54 29.144L136.316 22.168V44.696C136.316 45.5067 136.487 46.104 136.828 46.488C137.212 46.8293 137.809 47 138.62 47H148.476C149.287 47 149.863 46.8293 150.204 46.488C150.588 46.104 150.78 45.5067 150.78 44.696V3.224C150.78 2.41333 150.588 1.83733 150.204 1.496C149.863 1.112 149.287 0.919998 148.476 0.919998H138.108C137.425 0.919998 136.849 1.06933 136.38 1.368C135.953 1.66666 135.548 2.15733 135.164 2.84L129.468 13.272C129.255 13.656 129.063 13.9333 128.892 14.104C128.764 14.2747 128.572 14.36 128.316 14.36H127.74C127.484 14.36 127.271 14.2747 127.1 14.104C126.972 13.9333 126.801 13.656 126.588 13.272L120.828 2.84C120.444 2.15733 120.017 1.66666 119.548 1.368C119.121 1.06933 118.567 0.919998 117.884 0.919998H107.58C106.769 0.919998 106.172 1.112 105.788 1.496C105.447 1.83733 105.276 2.41333 105.276 3.224V44.696C105.276 45.5067 105.447 46.104 105.788 46.488C106.172 46.8293 106.769 47 107.58 47H117.116ZM119.164 47.064L110.844 53.976C110.673 54.1467 110.396 54.296 110.012 54.424C109.671 54.552 109.287 54.616 108.86 54.616H99.3239C98.2999 54.616 97.5532 54.3813 97.0839 53.912C96.6146 53.4427 96.3799 52.696 96.3799 51.672V10.2C96.3799 9.64533 96.4439 9.176 96.5719 8.792C96.7426 8.408 96.9772 8.088 97.2759 7.832L105.532 0.855999C105.745 0.685332 106.023 0.557331 106.364 0.471996C106.748 0.343998 107.153 0.279999 107.58 0.279999H117.884C118.695 0.279999 119.356 0.450665 119.868 0.791996C120.423 1.13333 120.935 1.70933 121.404 2.52L125.756 10.52L126.332 9.496C126.503 9.19733 126.673 8.92 126.844 8.664C127.057 8.36533 127.271 8.13067 127.484 7.96L135.74 1.048C136.081 0.791997 136.423 0.599997 136.764 0.471996C137.148 0.343998 137.596 0.279999 138.108 0.279999H148.476C149.5 0.279999 150.247 0.514665 150.716 0.983997C151.185 1.45333 151.42 2.2 151.42 3.224V44.696C151.42 45.2507 151.335 45.72 151.164 46.104C151.036 46.488 150.823 46.808 150.524 47.064L142.204 53.976C142.033 54.1467 141.756 54.296 141.372 54.424C141.031 54.552 140.647 54.616 140.22 54.616H130.364C129.297 54.616 128.529 54.3813 128.06 53.912C127.633 53.4427 127.42 52.696 127.42 51.672V34.776L123.644 37.912C123.303 38.2107 122.897 38.4453 122.428 38.616C122.001 38.744 121.489 38.808 120.892 38.808H120.06V44.696C120.06 45.2507 119.975 45.72 119.804 46.104C119.676 46.488 119.463 46.808 119.164 47.064Z" fill="#222222"/>
<path fill-rule="evenodd" clip-rule="evenodd" d="M179.914 46.488C179.573 46.8293 178.997 47 178.186 47H168.33C167.519 47 166.922 46.8293 166.538 46.488C166.197 46.104 166.026 45.5067 166.026 44.696V3.224C166.026 2.41333 166.197 1.83733 166.538 1.496C166.922 1.112 167.519 0.919998 168.33 0.919998H189.642C194.421 0.919998 197.706 1.92266 199.498 3.928C201.333 5.89066 202.25 8.45066 202.25 11.608V14.552C202.25 16.344 201.973 17.88 201.418 19.16C200.906 20.3973 199.989 21.2933 198.666 21.848C200.97 22.104 202.826 23.0427 204.234 24.664C205.685 26.2853 206.41 28.44 206.41 31.128V44.696C206.41 45.5067 206.218 46.104 205.834 46.488C205.493 46.8293 204.917 47 204.106 47H194.186C193.375 47 192.778 46.8293 192.394 46.488C192.053 46.104 191.882 45.5067 191.882 44.696V34.904C191.882 33.9653 191.69 33.2827 191.306 32.856C190.965 32.3867 190.346 32.152 189.45 32.152H180.49V44.696C180.49 45.5067 180.298 46.104 179.914 46.488ZM171.914 53.976L180.234 47.064C180.533 46.808 180.746 46.488 180.874 46.104C181.045 45.72 181.13 45.2507 181.13 44.696V39.768H181.194C181.877 39.768 182.346 39.96 182.602 40.344C182.858 40.6853 182.986 41.1973 182.986 41.88V51.672C182.986 52.696 183.221 53.4427 183.69 53.912C184.159 54.3813 184.906 54.616 185.93 54.616H195.85C196.277 54.616 196.661 54.552 197.002 54.424C197.386 54.296 197.663 54.1467 197.834 53.976L206.154 47.064C206.453 46.808 206.666 46.488 206.794 46.104C206.965 45.72 207.05 45.2507 207.05 44.696V31.128C207.05 28.6107 206.431 26.52 205.194 24.856C203.999 23.192 202.399 22.0827 200.394 21.528H200.458C201.311 20.8027 201.93 19.864 202.314 18.712C202.698 17.5173 202.89 16.1307 202.89 14.552V11.608C202.89 8.28 201.951 5.57066 200.074 3.48C198.197 1.34667 194.719 0.279999 189.642 0.279999H168.33C167.903 0.279999 167.498 0.343998 167.114 0.471996C166.773 0.557331 166.495 0.685332 166.282 0.855999L158.026 7.832C157.727 8.088 157.493 8.408 157.322 8.792C157.194 9.176 157.13 9.64533 157.13 10.2V51.672C157.13 52.696 157.365 53.4427 157.834 53.912C158.303 54.3813 159.05 54.616 160.074 54.616H169.93C170.357 54.616 170.741 54.552 171.082 54.424C171.466 54.296 171.743 54.1467 171.914 53.976Z" fill="#222222"/>
<path d="M180.49 12.44H185.29C186.399 12.44 187.146 12.7387 187.53 13.336C187.914 13.8907 188.106 14.5947 188.106 15.448V17.624C188.106 18.4773 187.914 19.2027 187.53 19.8C187.146 20.3547 186.399 20.632 185.29 20.632H180.49V12.44Z" fill="#222222"/>
</svg>
